<?xml version="1.0" encoding="UTF-8" standalone="no"?>
<!DOCTYPE svg PUBLIC "-//W3C//DTD SVG 1.1//EN"
 "http://www.w3.org/Graphics/SVG/1.1/DTD/svg11.dtd">
<!-- Generated by graphviz version 14.1.1 (20251213.1925)
 -->
<!-- Title: InheritanceTree Pages: 1 -->
<svg width="602pt" height="3093pt"
 viewBox="0.00 0.00 602.00 3093.00" xmlns="http://www.w3.org/2000/svg" xmlns:xlink="http://www.w3.org/1999/xlink">
<g id="graph0" class="graph" transform="scale(1 1) rotate(0) translate(4 3088.5)">
<title>InheritanceTree</title>
<polygon fill="white" stroke="none" points="-4,4 -4,-3088.5 597.75,-3088.5 597.75,4 -4,4"/>
<text xml:space="preserve" text-anchor="middle" x="296.88" y="-7.2" font-family="Times New Roman,serif" font-size="14.00">simple_speech &#45; Inheritance Hierarchy</text>
<!-- SPEECH_AI_ENHANCER -->
<g id="node1" class="node">
<title>SPEECH_AI_ENHANCER</title>
<path fill="none" stroke="black" d="M208.38,-60.5C208.38,-60.5 64.88,-60.5 64.88,-60.5 58.88,-60.5 52.88,-54.5 52.88,-48.5 52.88,-48.5 52.88,-36.5 52.88,-36.5 52.88,-30.5 58.88,-24.5 64.88,-24.5 64.88,-24.5 208.38,-24.5 208.38,-24.5 214.38,-24.5 220.38,-30.5 220.38,-36.5 220.38,-36.5 220.38,-48.5 220.38,-48.5 220.38,-54.5 214.38,-60.5 208.38,-60.5"/>
<text xml:space="preserve" text-anchor="middle" x="136.62" y="-37.45" font-family="Times New Roman,serif" font-size="14.00">SPEECH_AI_ENHANCER</text>
</g>
<!-- SPEECH_MULTI_LANGUAGE_EXPORTER -->
<g id="node2" class="node">
<title>SPEECH_MULTI_LANGUAGE_EXPORTER</title>
<path fill="none" stroke="black" d="M261.25,-132.5C261.25,-132.5 12,-132.5 12,-132.5 6,-132.5 0,-126.5 0,-120.5 0,-120.5 0,-108.5 0,-108.5 0,-102.5 6,-96.5 12,-96.5 12,-96.5 261.25,-96.5 261.25,-96.5 267.25,-96.5 273.25,-102.5 273.25,-108.5 273.25,-108.5 273.25,-120.5 273.25,-120.5 273.25,-126.5 267.25,-132.5 261.25,-132.5"/>
<text xml:space="preserve" text-anchor="middle" x="136.62" y="-109.45" font-family="Times New Roman,serif" font-size="14.00">SPEECH_MULTI_LANGUAGE_EXPORTER</text>
</g>
<!-- SPEECH_ASYNC_TRANSCRIBER -->
<g id="node3" class="node">
<title>SPEECH_ASYNC_TRANSCRIBER</title>
<path fill="none" stroke="black" d="M233.88,-204.5C233.88,-204.5 39.38,-204.5 39.38,-204.5 33.38,-204.5 27.37,-198.5 27.37,-192.5 27.37,-192.5 27.37,-180.5 27.37,-180.5 27.37,-174.5 33.37,-168.5 39.37,-168.5 39.37,-168.5 233.88,-168.5 233.88,-168.5 239.88,-168.5 245.88,-174.5 245.88,-180.5 245.88,-180.5 245.88,-192.5 245.88,-192.5 245.88,-198.5 239.88,-204.5 233.88,-204.5"/>
<text xml:space="preserve" text-anchor="middle" x="136.62" y="-181.45" font-family="Times New Roman,serif" font-size="14.00">SPEECH_ASYNC_TRANSCRIBER</text>
</g>
<!-- SPEECH_PROGRESS_HANDLER -->
<g id="node4" class="node">
<title>SPEECH_PROGRESS_HANDLER</title>
<path fill="none" stroke="black" d="M581.75,-312.5C581.75,-312.5 393.25,-312.5 393.25,-312.5 387.25,-312.5 381.25,-306.5 381.25,-300.5 381.25,-300.5 381.25,-288.5 381.25,-288.5 381.25,-282.5 387.25,-276.5 393.25,-276.5 393.25,-276.5 581.75,-276.5 581.75,-276.5 587.75,-276.5 593.75,-282.5 593.75,-288.5 593.75,-288.5 593.75,-300.5 593.75,-300.5 593.75,-306.5 587.75,-312.5 581.75,-312.5"/>
<text xml:space="preserve" text-anchor="middle" x="487.5" y="-289.45" font-family="Times New Roman,serif" font-size="14.00">SPEECH_PROGRESS_HANDLER</text>
</g>
<!-- SPEECH_BATCH_PROCESSOR -->
<g id="node5" class="node">
<title>SPEECH_BATCH_PROCESSOR</title>
<path fill="none" stroke="black" d="M225.25,-348.5C225.25,-348.5 48,-348.5 48,-348.5 42,-348.5 36,-342.5 36,-336.5 36,-336.5 36,-324.5 36,-324.5 36,-318.5 42,-312.5 48,-312.5 48,-312.5 225.25,-312.5 225.25,-312.5 231.25,-312.5 237.25,-318.5 237.25,-324.5 237.25,-324.5 237.25,-336.5 237.25,-336.5 237.25,-342.5 231.25,-348.5 225.25,-348.5"/>
<text xml:space="preserve" text-anchor="middle" x="136.62" y="-325.45" font-family="Times New Roman,serif" font-size="14.00">SPEECH_BATCH_PROCESSOR</text>
</g>
<!-- SPEECH_MEMORY_MONITOR -->
<g id="node6" class="node">
<title>SPEECH_MEMORY_MONITOR</title>
<path fill="none" stroke="black" d="M227.12,-420.5C227.12,-420.5 46.12,-420.5 46.12,-420.5 40.12,-420.5 34.12,-414.5 34.12,-408.5 34.12,-408.5 34.12,-396.5 34.12,-396.5 34.12,-390.5 40.12,-384.5 46.12,-384.5 46.12,-384.5 227.12,-384.5 227.12,-384.5 233.12,-384.5 239.12,-390.5 239.12,-396.5 239.12,-396.5 239.12,-408.5 239.12,-408.5 239.12,-414.5 233.12,-420.5 227.12,-420.5"/>
<text xml:space="preserve" text-anchor="middle" x="136.62" y="-397.45" font-family="Times New Roman,serif" font-size="14.00">SPEECH_MEMORY_MONITOR</text>
</g>
<!-- SPEECH_PROGRESS_INFO -->
<g id="node7" class="node">
<title>SPEECH_PROGRESS_INFO</title>
<path fill="none" stroke="black" d="M214.38,-492.5C214.38,-492.5 58.88,-492.5 58.88,-492.5 52.88,-492.5 46.88,-486.5 46.88,-480.5 46.88,-480.5 46.88,-468.5 46.88,-468.5 46.88,-462.5 52.88,-456.5 58.88,-456.5 58.88,-456.5 214.38,-456.5 214.38,-456.5 220.38,-456.5 226.38,-462.5 226.38,-468.5 226.38,-468.5 226.38,-480.5 226.38,-480.5 226.38,-486.5 220.38,-492.5 214.38,-492.5"/>
<text xml:space="preserve" text-anchor="middle" x="136.62" y="-469.45" font-family="Times New Roman,serif" font-size="14.00">SPEECH_PROGRESS_INFO</text>
</g>
<!-- SPEECH_AI_CHAPTER_ENHANCER -->
<g id="node8" class="node">
<title>SPEECH_AI_CHAPTER_ENHANCER</title>
<path fill="none" stroke="black" d="M242.5,-564.5C242.5,-564.5 30.75,-564.5 30.75,-564.5 24.75,-564.5 18.75,-558.5 18.75,-552.5 18.75,-552.5 18.75,-540.5 18.75,-540.5 18.75,-534.5 24.75,-528.5 30.75,-528.5 30.75,-528.5 242.5,-528.5 242.5,-528.5 248.5,-528.5 254.5,-534.5 254.5,-540.5 254.5,-540.5 254.5,-552.5 254.5,-552.5 254.5,-558.5 248.5,-564.5 242.5,-564.5"/>
<text xml:space="preserve" text-anchor="middle" x="136.62" y="-541.45" font-family="Times New Roman,serif" font-size="14.00">SPEECH_AI_CHAPTER_ENHANCER</text>
</g>
<!-- SPEECH_CHAPTER -->
<g id="node9" class="node">
<title>SPEECH_CHAPTER</title>
<path fill="none" stroke="black" d="M191.88,-636.5C191.88,-636.5 81.38,-636.5 81.38,-636.5 75.38,-636.5 69.38,-630.5 69.38,-624.5 69.38,-624.5 69.38,-612.5 69.38,-612.5 69.38,-606.5 75.38,-600.5 81.38,-600.5 81.38,-600.5 191.88,-600.5 191.88,-600.5 197.88,-600.5 203.88,-606.5 203.88,-612.5 203.88,-612.5 203.88,-624.5 203.88,-624.5 203.88,-630.5 197.88,-636.5 191.88,-636.5"/>
<text xml:space="preserve" text-anchor="middle" x="136.62" y="-613.45" font-family="Times New Roman,serif" font-size="14.00">SPEECH_CHAPTER</text>
</g>
<!-- SPEECH_CHAPTERED_RESULT -->
<g id="node10" class="node">
<title>SPEECH_CHAPTERED_RESULT</title>
<path fill="none" stroke="black" d="M229.38,-708.5C229.38,-708.5 43.88,-708.5 43.88,-708.5 37.88,-708.5 31.88,-702.5 31.88,-696.5 31.88,-696.5 31.88,-684.5 31.88,-684.5 31.88,-678.5 37.88,-672.5 43.88,-672.5 43.88,-672.5 229.38,-672.5 229.38,-672.5 235.38,-672.5 241.38,-678.5 241.38,-684.5 241.38,-684.5 241.38,-696.5 241.38,-696.5 241.38,-702.5 235.38,-708.5 229.38,-708.5"/>
<text xml:space="preserve" text-anchor="middle" x="136.62" y="-685.45" font-family="Times New Roman,serif" font-size="14.00">SPEECH_CHAPTERED_RESULT</text>
</g>
<!-- SPEECH_TRANSITION_DETECTOR -->
<g id="node11" class="node">
<title>SPEECH_TRANSITION_DETECTOR</title>
<path fill="none" stroke="black" d="M240.25,-780.5C240.25,-780.5 33,-780.5 33,-780.5 27,-780.5 21,-774.5 21,-768.5 21,-768.5 21,-756.5 21,-756.5 21,-750.5 27,-744.5 33,-744.5 33,-744.5 240.25,-744.5 240.25,-744.5 246.25,-744.5 252.25,-750.5 252.25,-756.5 252.25,-756.5 252.25,-768.5 252.25,-768.5 252.25,-774.5 246.25,-780.5 240.25,-780.5"/>
<text xml:space="preserve" text-anchor="middle" x="136.62" y="-757.45" font-family="Times New Roman,serif" font-size="14.00">SPEECH_TRANSITION_DETECTOR</text>
</g>
<!-- SPEECH_CLI -->
<g id="node12" class="node">
<title>SPEECH_CLI</title>
<path fill="none" stroke="black" d="M172,-852.5C172,-852.5 101.25,-852.5 101.25,-852.5 95.25,-852.5 89.25,-846.5 89.25,-840.5 89.25,-840.5 89.25,-828.5 89.25,-828.5 89.25,-822.5 95.25,-816.5 101.25,-816.5 101.25,-816.5 172,-816.5 172,-816.5 178,-816.5 184,-822.5 184,-828.5 184,-828.5 184,-840.5 184,-840.5 184,-846.5 178,-852.5 172,-852.5"/>
<text xml:space="preserve" text-anchor="middle" x="136.62" y="-829.45" font-family="Times New Roman,serif" font-size="14.00">SPEECH_CLI</text>
</g>
<!-- SHERPA_DIARIZATION -->
<g id="node13" class="node">
<title>SHERPA_DIARIZATION</title>
<path fill="none" stroke="black" d="M204.62,-924.5C204.62,-924.5 68.62,-924.5 68.62,-924.5 62.62,-924.5 56.62,-918.5 56.62,-912.5 56.62,-912.5 56.62,-900.5 56.62,-900.5 56.62,-894.5 62.62,-888.5 68.62,-888.5 68.62,-888.5 204.62,-888.5 204.62,-888.5 210.62,-888.5 216.62,-894.5 216.62,-900.5 216.62,-900.5 216.62,-912.5 216.62,-912.5 216.62,-918.5 210.62,-924.5 204.62,-924.5"/>
<text xml:space="preserve" text-anchor="middle" x="136.62" y="-901.45" font-family="Times New Roman,serif" font-size="14.00">SHERPA_DIARIZATION</text>
</g>
<!-- WHISPERX_CLI -->
<g id="node14" class="node">
<title>WHISPERX_CLI</title>
<path fill="none" stroke="black" d="M181.75,-996.5C181.75,-996.5 91.5,-996.5 91.5,-996.5 85.5,-996.5 79.5,-990.5 79.5,-984.5 79.5,-984.5 79.5,-972.5 79.5,-972.5 79.5,-966.5 85.5,-960.5 91.5,-960.5 91.5,-960.5 181.75,-960.5 181.75,-960.5 187.75,-960.5 193.75,-966.5 193.75,-972.5 193.75,-972.5 193.75,-984.5 193.75,-984.5 193.75,-990.5 187.75,-996.5 181.75,-996.5"/>
<text xml:space="preserve" text-anchor="middle" x="136.62" y="-973.45" font-family="Times New Roman,serif" font-size="14.00">WHISPERX_CLI</text>
</g>
<!-- SPEECH_METADATA_GENERATOR -->
<g id="node15" class="node">
<title>SPEECH_METADATA_GENERATOR</title>
<path fill="none" stroke="black" d="M241.38,-1068.5C241.38,-1068.5 31.88,-1068.5 31.88,-1068.5 25.88,-1068.5 19.87,-1062.5 19.87,-1056.5 19.87,-1056.5 19.87,-1044.5 19.87,-1044.5 19.87,-1038.5 25.87,-1032.5 31.87,-1032.5 31.87,-1032.5 241.38,-1032.5 241.38,-1032.5 247.38,-1032.5 253.38,-1038.5 253.38,-1044.5 253.38,-1044.5 253.38,-1056.5 253.38,-1056.5 253.38,-1062.5 247.38,-1068.5 241.38,-1068.5"/>
<text xml:space="preserve" text-anchor="middle" x="136.62" y="-1045.45" font-family="Times New Roman,serif" font-size="14.00">SPEECH_METADATA_GENERATOR</text>
</g>
<!-- SPEECH_VIDEO_EMBEDDER -->
<g id="node16" class="node">
<title>SPEECH_VIDEO_EMBEDDER</title>
<path fill="none" stroke="black" d="M223,-1140.5C223,-1140.5 50.25,-1140.5 50.25,-1140.5 44.25,-1140.5 38.25,-1134.5 38.25,-1128.5 38.25,-1128.5 38.25,-1116.5 38.25,-1116.5 38.25,-1110.5 44.25,-1104.5 50.25,-1104.5 50.25,-1104.5 223,-1104.5 223,-1104.5 229,-1104.5 235,-1110.5 235,-1116.5 235,-1116.5 235,-1128.5 235,-1128.5 235,-1134.5 229,-1140.5 223,-1140.5"/>
<text xml:space="preserve" text-anchor="middle" x="136.62" y="-1117.45" font-family="Times New Roman,serif" font-size="14.00">SPEECH_VIDEO_EMBEDDER</text>
</g>
<!-- WHISPER_ENGINE -->
<g id="node17" class="node">
<title>WHISPER_ENGINE</title>
<path fill="none" stroke="black" d="M191.12,-1212.5C191.12,-1212.5 82.12,-1212.5 82.12,-1212.5 76.12,-1212.5 70.12,-1206.5 70.12,-1200.5 70.12,-1200.5 70.12,-1188.5 70.12,-1188.5 70.12,-1182.5 76.12,-1176.5 82.12,-1176.5 82.12,-1176.5 191.12,-1176.5 191.12,-1176.5 197.12,-1176.5 203.12,-1182.5 203.12,-1188.5 203.12,-1188.5 203.12,-1200.5 203.12,-1200.5 203.12,-1206.5 197.12,-1212.5 191.12,-1212.5"/>
<text xml:space="preserve" text-anchor="middle" x="136.62" y="-1189.45" font-family="Times New Roman,serif" font-size="14.00">WHISPER_ENGINE</text>
</g>
<!-- SPEECH_ENGINE -->
<g id="node18" class="node">
<title>SPEECH_ENGINE</title>
<path fill="none" stroke="black" d="M537.12,-1212.5C537.12,-1212.5 437.88,-1212.5 437.88,-1212.5 431.88,-1212.5 425.88,-1206.5 425.88,-1200.5 425.88,-1200.5 425.88,-1188.5 425.88,-1188.5 425.88,-1182.5 431.88,-1176.5 437.88,-1176.5 437.88,-1176.5 537.12,-1176.5 537.12,-1176.5 543.12,-1176.5 549.12,-1182.5 549.12,-1188.5 549.12,-1188.5 549.12,-1200.5 549.12,-1200.5 549.12,-1206.5 543.12,-1212.5 537.12,-1212.5"/>
<text xml:space="preserve" text-anchor="middle" x="487.5" y="-1189.45" font-family="Times New Roman,serif" font-size="14.00">SPEECH_ENGINE</text>
</g>
<!-- WHISPER_ENGINE&#45;&gt;SPEECH_ENGINE -->
<g id="edge1" class="edge">
<title>WHISPER_ENGINE&#45;&gt;SPEECH_ENGINE</title>
<path fill="none" stroke="black" d="M203.45,-1194.5C203.45,-1194.5 414.12,-1194.5 414.12,-1194.5"/>
<polygon fill="none" stroke="black" points="414.12,-1198 424.12,-1194.5 414.12,-1191 414.12,-1198"/>
</g>
<!-- JSON_EXPORTER -->
<g id="node19" class="node">
<title>JSON_EXPORTER</title>
<path fill="none" stroke="black" d="M186.62,-1284.5C186.62,-1284.5 86.62,-1284.5 86.62,-1284.5 80.62,-1284.5 74.62,-1278.5 74.62,-1272.5 74.62,-1272.5 74.62,-1260.5 74.62,-1260.5 74.62,-1254.5 80.62,-1248.5 86.62,-1248.5 86.62,-1248.5 186.62,-1248.5 186.62,-1248.5 192.62,-1248.5 198.62,-1254.5 198.62,-1260.5 198.62,-1260.5 198.62,-1272.5 198.62,-1272.5 198.62,-1278.5 192.62,-1284.5 186.62,-1284.5"/>
<text xml:space="preserve" text-anchor="middle" x="136.62" y="-1261.45" font-family="Times New Roman,serif" font-size="14.00">JSON_EXPORTER</text>
</g>
<!-- SPEECH_EXPORTER -->
<g id="node20" class="node">
<title>SPEECH_EXPORTER</title>
<path fill="none" stroke="black" d="M195.62,-1356.5C195.62,-1356.5 77.62,-1356.5 77.62,-1356.5 71.62,-1356.5 65.62,-1350.5 65.62,-1344.5 65.62,-1344.5 65.62,-1332.5 65.62,-1332.5 65.62,-1326.5 71.62,-1320.5 77.62,-1320.5 77.62,-1320.5 195.62,-1320.5 195.62,-1320.5 201.62,-1320.5 207.62,-1326.5 207.62,-1332.5 207.62,-1332.5 207.62,-1344.5 207.62,-1344.5 207.62,-1350.5 201.62,-1356.5 195.62,-1356.5"/>
<text xml:space="preserve" text-anchor="middle" x="136.62" y="-1333.45" font-family="Times New Roman,serif" font-size="14.00">SPEECH_EXPORTER</text>
</g>
<!-- SRT_EXPORTER -->
<g id="node21" class="node">
<title>SRT_EXPORTER</title>
<path fill="none" stroke="black" d="M182.5,-1428.5C182.5,-1428.5 90.75,-1428.5 90.75,-1428.5 84.75,-1428.5 78.75,-1422.5 78.75,-1416.5 78.75,-1416.5 78.75,-1404.5 78.75,-1404.5 78.75,-1398.5 84.75,-1392.5 90.75,-1392.5 90.75,-1392.5 182.5,-1392.5 182.5,-1392.5 188.5,-1392.5 194.5,-1398.5 194.5,-1404.5 194.5,-1404.5 194.5,-1416.5 194.5,-1416.5 194.5,-1422.5 188.5,-1428.5 182.5,-1428.5"/>
<text xml:space="preserve" text-anchor="middle" x="136.62" y="-1405.45" font-family="Times New Roman,serif" font-size="14.00">SRT_EXPORTER</text>
</g>
<!-- TXT_EXPORTER -->
<g id="node22" class="node">
<title>TXT_EXPORTER</title>
<path fill="none" stroke="black" d="M183.62,-1500.5C183.62,-1500.5 89.62,-1500.5 89.62,-1500.5 83.62,-1500.5 77.62,-1494.5 77.62,-1488.5 77.62,-1488.5 77.62,-1476.5 77.62,-1476.5 77.62,-1470.5 83.62,-1464.5 89.62,-1464.5 89.62,-1464.5 183.62,-1464.5 183.62,-1464.5 189.62,-1464.5 195.62,-1470.5 195.62,-1476.5 195.62,-1476.5 195.62,-1488.5 195.62,-1488.5 195.62,-1494.5 189.62,-1500.5 183.62,-1500.5"/>
<text xml:space="preserve" text-anchor="middle" x="136.62" y="-1477.45" font-family="Times New Roman,serif" font-size="14.00">TXT_EXPORTER</text>
</g>
<!-- VTT_EXPORTER -->
<g id="node23" class="node">
<title>VTT_EXPORTER</title>
<path fill="none" stroke="black" d="M183.62,-1572.5C183.62,-1572.5 89.62,-1572.5 89.62,-1572.5 83.62,-1572.5 77.62,-1566.5 77.62,-1560.5 77.62,-1560.5 77.62,-1548.5 77.62,-1548.5 77.62,-1542.5 83.62,-1536.5 89.62,-1536.5 89.62,-1536.5 183.62,-1536.5 183.62,-1536.5 189.62,-1536.5 195.62,-1542.5 195.62,-1548.5 195.62,-1548.5 195.62,-1560.5 195.62,-1560.5 195.62,-1566.5 189.62,-1572.5 183.62,-1572.5"/>
<text xml:space="preserve" text-anchor="middle" x="136.62" y="-1549.45" font-family="Times New Roman,serif" font-size="14.00">VTT_EXPORTER</text>
</g>
<!-- SPEECH_PIPELINE -->
<g id="node24" class="node">
<title>SPEECH_PIPELINE</title>
<path fill="none" stroke="black" d="M190.38,-1644.5C190.38,-1644.5 82.88,-1644.5 82.88,-1644.5 76.88,-1644.5 70.88,-1638.5 70.88,-1632.5 70.88,-1632.5 70.88,-1620.5 70.88,-1620.5 70.88,-1614.5 76.88,-1608.5 82.88,-1608.5 82.88,-1608.5 190.38,-1608.5 190.38,-1608.5 196.38,-1608.5 202.38,-1614.5 202.38,-1620.5 202.38,-1620.5 202.38,-1632.5 202.38,-1632.5 202.38,-1638.5 196.38,-1644.5 190.38,-1644.5"/>
<text xml:space="preserve" text-anchor="middle" x="136.62" y="-1621.45" font-family="Times New Roman,serif" font-size="14.00">SPEECH_PIPELINE</text>
</g>
<!-- SPEECH_QUICK -->
<g id="node25" class="node">
<title>SPEECH_QUICK</title>
<path fill="none" stroke="black" d="M182.5,-1716.5C182.5,-1716.5 90.75,-1716.5 90.75,-1716.5 84.75,-1716.5 78.75,-1710.5 78.75,-1704.5 78.75,-1704.5 78.75,-1692.5 78.75,-1692.5 78.75,-1686.5 84.75,-1680.5 90.75,-1680.5 90.75,-1680.5 182.5,-1680.5 182.5,-1680.5 188.5,-1680.5 194.5,-1686.5 194.5,-1692.5 194.5,-1692.5 194.5,-1704.5 194.5,-1704.5 194.5,-1710.5 188.5,-1716.5 182.5,-1716.5"/>
<text xml:space="preserve" text-anchor="middle" x="136.62" y="-1693.45" font-family="Times New Roman,serif" font-size="14.00">SPEECH_QUICK</text>
</g>
<!-- SIMPLE_SPEECH -->
<g id="node26" class="node">
<title>SIMPLE_SPEECH</title>
<path fill="none" stroke="black" d="M185.5,-1788.5C185.5,-1788.5 87.75,-1788.5 87.75,-1788.5 81.75,-1788.5 75.75,-1782.5 75.75,-1776.5 75.75,-1776.5 75.75,-1764.5 75.75,-1764.5 75.75,-1758.5 81.75,-1752.5 87.75,-1752.5 87.75,-1752.5 185.5,-1752.5 185.5,-1752.5 191.5,-1752.5 197.5,-1758.5 197.5,-1764.5 197.5,-1764.5 197.5,-1776.5 197.5,-1776.5 197.5,-1782.5 191.5,-1788.5 185.5,-1788.5"/>
<text xml:space="preserve" text-anchor="middle" x="136.62" y="-1765.45" font-family="Times New Roman,serif" font-size="14.00">SIMPLE_SPEECH</text>
</g>
<!-- SPEECH_SEGMENT -->
<g id="node27" class="node">
<title>SPEECH_SEGMENT</title>
<path fill="none" stroke="black" d="M193.38,-1860.5C193.38,-1860.5 79.88,-1860.5 79.88,-1860.5 73.88,-1860.5 67.88,-1854.5 67.88,-1848.5 67.88,-1848.5 67.88,-1836.5 67.88,-1836.5 67.88,-1830.5 73.88,-1824.5 79.88,-1824.5 79.88,-1824.5 193.38,-1824.5 193.38,-1824.5 199.38,-1824.5 205.38,-1830.5 205.38,-1836.5 205.38,-1836.5 205.38,-1848.5 205.38,-1848.5 205.38,-1854.5 199.38,-1860.5 193.38,-1860.5"/>
<text xml:space="preserve" text-anchor="middle" x="136.62" y="-1837.45" font-family="Times New Roman,serif" font-size="14.00">SPEECH_SEGMENT</text>
</g>
<!-- WAV_READER -->
<g id="node28" class="node">
<title>WAV_READER</title>
<path fill="none" stroke="black" d="M178,-1932.5C178,-1932.5 95.25,-1932.5 95.25,-1932.5 89.25,-1932.5 83.25,-1926.5 83.25,-1920.5 83.25,-1920.5 83.25,-1908.5 83.25,-1908.5 83.25,-1902.5 89.25,-1896.5 95.25,-1896.5 95.25,-1896.5 178,-1896.5 178,-1896.5 184,-1896.5 190,-1902.5 190,-1908.5 190,-1908.5 190,-1920.5 190,-1920.5 190,-1926.5 184,-1932.5 178,-1932.5"/>
<text xml:space="preserve" text-anchor="middle" x="136.62" y="-1909.45" font-family="Times New Roman,serif" font-size="14.00">WAV_READER</text>
</g>
<!-- DEMO_AI_ENHANCE -->
<g id="node29" class="node">
<title>DEMO_AI_ENHANCE</title>
<path fill="none" stroke="black" d="M199,-2004.5C199,-2004.5 74.25,-2004.5 74.25,-2004.5 68.25,-2004.5 62.25,-1998.5 62.25,-1992.5 62.25,-1992.5 62.25,-1980.5 62.25,-1980.5 62.25,-1974.5 68.25,-1968.5 74.25,-1968.5 74.25,-1968.5 199,-1968.5 199,-1968.5 205,-1968.5 211,-1974.5 211,-1980.5 211,-1980.5 211,-1992.5 211,-1992.5 211,-1998.5 205,-2004.5 199,-2004.5"/>
<text xml:space="preserve" text-anchor="middle" x="136.62" y="-1981.45" font-family="Times New Roman,serif" font-size="14.00">DEMO_AI_ENHANCE</text>
</g>
<!-- DEMO_BATCH -->
<g id="node30" class="node">
<title>DEMO_BATCH</title>
<path fill="none" stroke="black" d="M178.38,-2076.5C178.38,-2076.5 94.88,-2076.5 94.88,-2076.5 88.88,-2076.5 82.88,-2070.5 82.88,-2064.5 82.88,-2064.5 82.88,-2052.5 82.88,-2052.5 82.88,-2046.5 88.88,-2040.5 94.88,-2040.5 94.88,-2040.5 178.38,-2040.5 178.38,-2040.5 184.38,-2040.5 190.38,-2046.5 190.38,-2052.5 190.38,-2052.5 190.38,-2064.5 190.38,-2064.5 190.38,-2070.5 184.38,-2076.5 178.38,-2076.5"/>
<text xml:space="preserve" text-anchor="middle" x="136.62" y="-2053.45" font-family="Times New Roman,serif" font-size="14.00">DEMO_BATCH</text>
</g>
<!-- DEMO_CHAPTERS -->
<g id="node31" class="node">
<title>DEMO_CHAPTERS</title>
<path fill="none" stroke="black" d="M190.75,-2148.5C190.75,-2148.5 82.5,-2148.5 82.5,-2148.5 76.5,-2148.5 70.5,-2142.5 70.5,-2136.5 70.5,-2136.5 70.5,-2124.5 70.5,-2124.5 70.5,-2118.5 76.5,-2112.5 82.5,-2112.5 82.5,-2112.5 190.75,-2112.5 190.75,-2112.5 196.75,-2112.5 202.75,-2118.5 202.75,-2124.5 202.75,-2124.5 202.75,-2136.5 202.75,-2136.5 202.75,-2142.5 196.75,-2148.5 190.75,-2148.5"/>
<text xml:space="preserve" text-anchor="middle" x="136.62" y="-2125.45" font-family="Times New Roman,serif" font-size="14.00">DEMO_CHAPTERS</text>
</g>
<!-- DEMO_EMBED -->
<g id="node32" class="node">
<title>DEMO_EMBED</title>
<path fill="none" stroke="black" d="M180.25,-2220.5C180.25,-2220.5 93,-2220.5 93,-2220.5 87,-2220.5 81,-2214.5 81,-2208.5 81,-2208.5 81,-2196.5 81,-2196.5 81,-2190.5 87,-2184.5 93,-2184.5 93,-2184.5 180.25,-2184.5 180.25,-2184.5 186.25,-2184.5 192.25,-2190.5 192.25,-2196.5 192.25,-2196.5 192.25,-2208.5 192.25,-2208.5 192.25,-2214.5 186.25,-2220.5 180.25,-2220.5"/>
<text xml:space="preserve" text-anchor="middle" x="136.62" y="-2197.45" font-family="Times New Roman,serif" font-size="14.00">DEMO_EMBED</text>
</g>
<!-- DEMO_EXPORT -->
<g id="node33" class="node">
<title>DEMO_EXPORT</title>
<path fill="none" stroke="black" d="M182.12,-2292.5C182.12,-2292.5 91.12,-2292.5 91.12,-2292.5 85.12,-2292.5 79.12,-2286.5 79.12,-2280.5 79.12,-2280.5 79.12,-2268.5 79.12,-2268.5 79.12,-2262.5 85.12,-2256.5 91.12,-2256.5 91.12,-2256.5 182.12,-2256.5 182.12,-2256.5 188.12,-2256.5 194.12,-2262.5 194.12,-2268.5 194.12,-2268.5 194.12,-2280.5 194.12,-2280.5 194.12,-2286.5 188.12,-2292.5 182.12,-2292.5"/>
<text xml:space="preserve" text-anchor="middle" x="136.62" y="-2269.45" font-family="Times New Roman,serif" font-size="14.00">DEMO_EXPORT</text>
</g>
<!-- DEMO_PIPELINE -->
<g id="node34" class="node">
<title>DEMO_PIPELINE</title>
<path fill="none" stroke="black" d="M185.5,-2364.5C185.5,-2364.5 87.75,-2364.5 87.75,-2364.5 81.75,-2364.5 75.75,-2358.5 75.75,-2352.5 75.75,-2352.5 75.75,-2340.5 75.75,-2340.5 75.75,-2334.5 81.75,-2328.5 87.75,-2328.5 87.75,-2328.5 185.5,-2328.5 185.5,-2328.5 191.5,-2328.5 197.5,-2334.5 197.5,-2340.5 197.5,-2340.5 197.5,-2352.5 197.5,-2352.5 197.5,-2358.5 191.5,-2364.5 185.5,-2364.5"/>
<text xml:space="preserve" text-anchor="middle" x="136.62" y="-2341.45" font-family="Times New Roman,serif" font-size="14.00">DEMO_PIPELINE</text>
</g>
<!-- DEMO_SAMPLES -->
<g id="node35" class="node">
<title>DEMO_SAMPLES</title>
<path fill="none" stroke="black" d="M187,-2436.5C187,-2436.5 86.25,-2436.5 86.25,-2436.5 80.25,-2436.5 74.25,-2430.5 74.25,-2424.5 74.25,-2424.5 74.25,-2412.5 74.25,-2412.5 74.25,-2406.5 80.25,-2400.5 86.25,-2400.5 86.25,-2400.5 187,-2400.5 187,-2400.5 193,-2400.5 199,-2406.5 199,-2412.5 199,-2412.5 199,-2424.5 199,-2424.5 199,-2430.5 193,-2436.5 187,-2436.5"/>
<text xml:space="preserve" text-anchor="middle" x="136.62" y="-2413.45" font-family="Times New Roman,serif" font-size="14.00">DEMO_SAMPLES</text>
</g>
<!-- DEMO_TRANSCRIBE -->
<g id="node36" class="node">
<title>DEMO_TRANSCRIBE</title>
<path fill="none" stroke="black" d="M198.25,-2508.5C198.25,-2508.5 75,-2508.5 75,-2508.5 69,-2508.5 63,-2502.5 63,-2496.5 63,-2496.5 63,-2484.5 63,-2484.5 63,-2478.5 69,-2472.5 75,-2472.5 75,-2472.5 198.25,-2472.5 198.25,-2472.5 204.25,-2472.5 210.25,-2478.5 210.25,-2484.5 210.25,-2484.5 210.25,-2496.5 210.25,-2496.5 210.25,-2502.5 204.25,-2508.5 198.25,-2508.5"/>
<text xml:space="preserve" text-anchor="middle" x="136.62" y="-2485.45" font-family="Times New Roman,serif" font-size="14.00">DEMO_TRANSCRIBE</text>
</g>
<!-- LIB_TESTS -->
<g id="node37" class="node">
<title>LIB_TESTS</title>
<path fill="none" stroke="black" d="M166.75,-2580.5C166.75,-2580.5 106.5,-2580.5 106.5,-2580.5 100.5,-2580.5 94.5,-2574.5 94.5,-2568.5 94.5,-2568.5 94.5,-2556.5 94.5,-2556.5 94.5,-2550.5 100.5,-2544.5 106.5,-2544.5 106.5,-2544.5 166.75,-2544.5 166.75,-2544.5 172.75,-2544.5 178.75,-2550.5 178.75,-2556.5 178.75,-2556.5 178.75,-2568.5 178.75,-2568.5 178.75,-2574.5 172.75,-2580.5 166.75,-2580.5"/>
<text xml:space="preserve" text-anchor="middle" x="136.62" y="-2557.45" font-family="Times New Roman,serif" font-size="14.00">LIB_TESTS</text>
</g>
<!-- TEST_SET_BASE -->
<g id="node38" class="node">
<title>TEST_SET_BASE</title>
<path fill="none" stroke="black" d="M535.62,-2580.5C535.62,-2580.5 439.38,-2580.5 439.38,-2580.5 433.38,-2580.5 427.38,-2574.5 427.38,-2568.5 427.38,-2568.5 427.38,-2556.5 427.38,-2556.5 427.38,-2550.5 433.38,-2544.5 439.38,-2544.5 439.38,-2544.5 535.62,-2544.5 535.62,-2544.5 541.62,-2544.5 547.62,-2550.5 547.62,-2556.5 547.62,-2556.5 547.62,-2568.5 547.62,-2568.5 547.62,-2574.5 541.62,-2580.5 535.62,-2580.5"/>
<text xml:space="preserve" text-anchor="middle" x="487.5" y="-2557.45" font-family="Times New Roman,serif" font-size="14.00">TEST_SET_BASE</text>
</g>
<!-- LIB_TESTS&#45;&gt;TEST_SET_BASE -->
<g id="edge2" class="edge">
<title>LIB_TESTS&#45;&gt;TEST_SET_BASE</title>
<path fill="none" stroke="black" d="M178.95,-2548.1C178.95,-2548.1 415.59,-2548.1 415.59,-2548.1"/>
<polygon fill="none" stroke="black" points="415.59,-2551.6 425.59,-2548.1 415.59,-2544.6 415.59,-2551.6"/>
</g>
<!-- LIB_TESTS&#45;&gt;TEST_SET_BASE -->
<g id="edge3" class="edge">
<title>LIB_TESTS&#45;&gt;TEST_SET_BASE</title>
<path fill="none" stroke="black" d="M178.95,-2551.7C178.95,-2551.7 415.59,-2551.7 415.59,-2551.7"/>
<polygon fill="none" stroke="black" points="415.59,-2555.2 425.59,-2551.7 415.59,-2548.2 415.59,-2555.2"/>
</g>
<!-- LIB_TESTS&#45;&gt;TEST_SET_BASE -->
<g id="edge4" class="edge">
<title>LIB_TESTS&#45;&gt;TEST_SET_BASE</title>
<path fill="none" stroke="black" d="M178.95,-2555.3C178.95,-2555.3 415.59,-2555.3 415.59,-2555.3"/>
<polygon fill="none" stroke="black" points="415.59,-2558.8 425.59,-2555.3 415.59,-2551.8 415.59,-2558.8"/>
</g>
<!-- LIB_TESTS&#45;&gt;TEST_SET_BASE -->
<g id="edge5" class="edge">
<title>LIB_TESTS&#45;&gt;TEST_SET_BASE</title>
<path fill="none" stroke="black" d="M178.95,-2558.9C178.95,-2558.9 415.59,-2558.9 415.59,-2558.9"/>
<polygon fill="none" stroke="black" points="415.59,-2562.4 425.59,-2558.9 415.59,-2555.4 415.59,-2562.4"/>
</g>
<!-- LIB_TESTS&#45;&gt;TEST_SET_BASE -->
<g id="edge6" class="edge">
<title>LIB_TESTS&#45;&gt;TEST_SET_BASE</title>
<path fill="none" stroke="black" d="M178.95,-2562.5C178.95,-2562.5 415.59,-2562.5 415.59,-2562.5"/>
<polygon fill="none" stroke="black" points="415.59,-2566 425.59,-2562.5 415.59,-2559 415.59,-2566"/>
</g>
<!-- LIB_TESTS&#45;&gt;TEST_SET_BASE -->
<g id="edge7" class="edge">
<title>LIB_TESTS&#45;&gt;TEST_SET_BASE</title>
<path fill="none" stroke="black" d="M178.95,-2566.1C178.95,-2566.1 415.59,-2566.1 415.59,-2566.1"/>
<polygon fill="none" stroke="black" points="415.59,-2569.6 425.59,-2566.1 415.59,-2562.6 415.59,-2569.6"/>
</g>
<!-- LIB_TESTS&#45;&gt;TEST_SET_BASE -->
<g id="edge8" class="edge">
<title>LIB_TESTS&#45;&gt;TEST_SET_BASE</title>
<path fill="none" stroke="black" d="M178.95,-2569.7C178.95,-2569.7 415.59,-2569.7 415.59,-2569.7"/>
<polygon fill="none" stroke="black" points="415.59,-2573.2 425.59,-2569.7 415.59,-2566.2 415.59,-2573.2"/>
</g>
<!-- LIB_TESTS&#45;&gt;TEST_SET_BASE -->
<g id="edge9" class="edge">
<title>LIB_TESTS&#45;&gt;TEST_SET_BASE</title>
<path fill="none" stroke="black" d="M178.95,-2573.3C178.95,-2573.3 415.59,-2573.3 415.59,-2573.3"/>
<polygon fill="none" stroke="black" points="415.59,-2576.8 425.59,-2573.3 415.59,-2569.8 415.59,-2576.8"/>
</g>
<!-- LIB_TESTS&#45;&gt;TEST_SET_BASE -->
<g id="edge10" class="edge">
<title>LIB_TESTS&#45;&gt;TEST_SET_BASE</title>
<path fill="none" stroke="black" d="M178.95,-2576.9C178.95,-2576.9 415.59,-2576.9 415.59,-2576.9"/>
<polygon fill="none" stroke="black" points="415.59,-2580.4 425.59,-2576.9 415.59,-2573.4 415.59,-2580.4"/>
</g>
<!-- TEST_APP -->
<g id="node39" class="node">
<title>TEST_APP</title>
<path fill="none" stroke="black" d="M164.5,-2652.5C164.5,-2652.5 108.75,-2652.5 108.75,-2652.5 102.75,-2652.5 96.75,-2646.5 96.75,-2640.5 96.75,-2640.5 96.75,-2628.5 96.75,-2628.5 96.75,-2622.5 102.75,-2616.5 108.75,-2616.5 108.75,-2616.5 164.5,-2616.5 164.5,-2616.5 170.5,-2616.5 176.5,-2622.5 176.5,-2628.5 176.5,-2628.5 176.5,-2640.5 176.5,-2640.5 176.5,-2646.5 170.5,-2652.5 164.5,-2652.5"/>
<text xml:space="preserve" text-anchor="middle" x="136.62" y="-2629.45" font-family="Times New Roman,serif" font-size="14.00">TEST_APP</text>
</g>
<!-- TEST_DIARIZATION -->
<g id="node40" class="node">
<title>TEST_DIARIZATION</title>
<path fill="none" stroke="black" d="M195.25,-2724.5C195.25,-2724.5 78,-2724.5 78,-2724.5 72,-2724.5 66,-2718.5 66,-2712.5 66,-2712.5 66,-2700.5 66,-2700.5 66,-2694.5 72,-2688.5 78,-2688.5 78,-2688.5 195.25,-2688.5 195.25,-2688.5 201.25,-2688.5 207.25,-2694.5 207.25,-2700.5 207.25,-2700.5 207.25,-2712.5 207.25,-2712.5 207.25,-2718.5 201.25,-2724.5 195.25,-2724.5"/>
<text xml:space="preserve" text-anchor="middle" x="136.62" y="-2701.45" font-family="Times New Roman,serif" font-size="14.00">TEST_DIARIZATION</text>
</g>
<!-- TEST_EXPORT -->
<g id="node41" class="node">
<title>TEST_EXPORT</title>
<path fill="none" stroke="black" d="M178,-2796.5C178,-2796.5 95.25,-2796.5 95.25,-2796.5 89.25,-2796.5 83.25,-2790.5 83.25,-2784.5 83.25,-2784.5 83.25,-2772.5 83.25,-2772.5 83.25,-2766.5 89.25,-2760.5 95.25,-2760.5 95.25,-2760.5 178,-2760.5 178,-2760.5 184,-2760.5 190,-2766.5 190,-2772.5 190,-2772.5 190,-2784.5 190,-2784.5 190,-2790.5 184,-2796.5 178,-2796.5"/>
<text xml:space="preserve" text-anchor="middle" x="136.62" y="-2773.45" font-family="Times New Roman,serif" font-size="14.00">TEST_EXPORT</text>
</g>
<!-- TEST_FFMPEG -->
<g id="node42" class="node">
<title>TEST_FFMPEG</title>
<path fill="none" stroke="black" d="M178.75,-2868.5C178.75,-2868.5 94.5,-2868.5 94.5,-2868.5 88.5,-2868.5 82.5,-2862.5 82.5,-2856.5 82.5,-2856.5 82.5,-2844.5 82.5,-2844.5 82.5,-2838.5 88.5,-2832.5 94.5,-2832.5 94.5,-2832.5 178.75,-2832.5 178.75,-2832.5 184.75,-2832.5 190.75,-2838.5 190.75,-2844.5 190.75,-2844.5 190.75,-2856.5 190.75,-2856.5 190.75,-2862.5 184.75,-2868.5 178.75,-2868.5"/>
<text xml:space="preserve" text-anchor="middle" x="136.62" y="-2845.45" font-family="Times New Roman,serif" font-size="14.00">TEST_FFMPEG</text>
</g>
<!-- TEST_SAMPLES -->
<g id="node43" class="node">
<title>TEST_SAMPLES</title>
<path fill="none" stroke="black" d="M182.88,-2940.5C182.88,-2940.5 90.38,-2940.5 90.38,-2940.5 84.38,-2940.5 78.38,-2934.5 78.38,-2928.5 78.38,-2928.5 78.38,-2916.5 78.38,-2916.5 78.38,-2910.5 84.38,-2904.5 90.38,-2904.5 90.38,-2904.5 182.88,-2904.5 182.88,-2904.5 188.88,-2904.5 194.88,-2910.5 194.88,-2916.5 194.88,-2916.5 194.88,-2928.5 194.88,-2928.5 194.88,-2934.5 188.88,-2940.5 182.88,-2940.5"/>
<text xml:space="preserve" text-anchor="middle" x="136.62" y="-2917.45" font-family="Times New Roman,serif" font-size="14.00">TEST_SAMPLES</text>
</g>
<!-- TEST_SEGMENT -->
<g id="node44" class="node">
<title>TEST_SEGMENT</title>
<path fill="none" stroke="black" d="M184.38,-3012.5C184.38,-3012.5 88.88,-3012.5 88.88,-3012.5 82.88,-3012.5 76.88,-3006.5 76.88,-3000.5 76.88,-3000.5 76.88,-2988.5 76.88,-2988.5 76.88,-2982.5 82.88,-2976.5 88.88,-2976.5 88.88,-2976.5 184.38,-2976.5 184.38,-2976.5 190.38,-2976.5 196.38,-2982.5 196.38,-2988.5 196.38,-2988.5 196.38,-3000.5 196.38,-3000.5 196.38,-3006.5 190.38,-3012.5 184.38,-3012.5"/>
<text xml:space="preserve" text-anchor="middle" x="136.62" y="-2989.45" font-family="Times New Roman,serif" font-size="14.00">TEST_SEGMENT</text>
</g>
<!-- TEST_SPEECH -->
<g id="node45" class="node">
<title>TEST_SPEECH</title>
<path fill="none" stroke="black" d="M177.25,-3084.5C177.25,-3084.5 96,-3084.5 96,-3084.5 90,-3084.5 84,-3078.5 84,-3072.5 84,-3072.5 84,-3060.5 84,-3060.5 84,-3054.5 90,-3048.5 96,-3048.5 96,-3048.5 177.25,-3048.5 177.25,-3048.5 183.25,-3048.5 189.25,-3054.5 189.25,-3060.5 189.25,-3060.5 189.25,-3072.5 189.25,-3072.5 189.25,-3078.5 183.25,-3084.5 177.25,-3084.5"/>
<text xml:space="preserve" text-anchor="middle" x="136.62" y="-3061.45" font-family="Times New Roman,serif" font-size="14.00">TEST_SPEECH</text>
</g>
<!-- SPEECH_STUDIO_APP -->
<g id="node46" class="node">
<title>SPEECH_STUDIO_APP</title>
<path fill="none" stroke="black" d="M201.62,-276.5C201.62,-276.5 71.62,-276.5 71.62,-276.5 65.62,-276.5 59.62,-270.5 59.62,-264.5 59.62,-264.5 59.62,-252.5 59.62,-252.5 59.62,-246.5 65.62,-240.5 71.62,-240.5 71.62,-240.5 201.62,-240.5 201.62,-240.5 207.62,-240.5 213.62,-246.5 213.62,-252.5 213.62,-252.5 213.62,-264.5 213.62,-264.5 213.62,-270.5 207.62,-276.5 201.62,-276.5"/>
<text xml:space="preserve" text-anchor="middle" x="136.62" y="-253.45" font-family="Times New Roman,serif" font-size="14.00">SPEECH_STUDIO_APP</text>
</g>
<!-- SPEECH_STUDIO_APP&#45;&gt;SPEECH_PROGRESS_HANDLER -->
<g id="edge12" class="edge">
<title>SPEECH_STUDIO_APP&#45;&gt;SPEECH_PROGRESS_HANDLER</title>
<path fill="none" stroke="black" d="M213.96,-264.5C292.53,-264.5 402.75,-264.5 402.75,-264.5 402.75,-264.5 402.75,-265.65 402.75,-265.65"/>
<polygon fill="none" stroke="black" points="399.25,-264.5 402.75,-274.5 406.25,-264.5 399.25,-264.5"/>
</g>
<!-- SV_APPLICATION -->
<g id="node47" class="node">
<title>SV_APPLICATION</title>
<path fill="none" stroke="black" d="M539,-240.5C539,-240.5 436,-240.5 436,-240.5 430,-240.5 424,-234.5 424,-228.5 424,-228.5 424,-216.5 424,-216.5 424,-210.5 430,-204.5 436,-204.5 436,-204.5 539,-204.5 539,-204.5 545,-204.5 551,-210.5 551,-216.5 551,-216.5 551,-228.5 551,-228.5 551,-234.5 545,-240.5 539,-240.5"/>
<text xml:space="preserve" text-anchor="middle" x="487.5" y="-217.45" font-family="Times New Roman,serif" font-size="14.00">SV_APPLICATION</text>
</g>
<!-- SPEECH_STUDIO_APP&#45;&gt;SV_APPLICATION -->
<g id="edge11" class="edge">
<title>SPEECH_STUDIO_APP&#45;&gt;SV_APPLICATION</title>
<path fill="none" stroke="black" d="M214.12,-252.5C317.52,-252.5 487.75,-252.5 487.75,-252.5 487.75,-252.5 487.75,-251.35 487.75,-251.35"/>
<polygon fill="none" stroke="black" points="491.25,-252.5 487.75,-242.5 484.25,-252.5 491.25,-252.5"/>
</g>
</g>
</svg>
