<?xml version="1.0" encoding="UTF-8" standalone="no"?>
<!DOCTYPE svg PUBLIC "-//W3C//DTD SVG 1.1//EN"
 "http://www.w3.org/Graphics/SVG/1.1/DTD/svg11.dtd">
<!-- Generated by graphviz version 14.1.1 (20251213.1925)
 -->
<!-- Title: Dependencies Pages: 1 -->
<svg width="354pt" height="717pt"
 viewBox="0.00 0.00 354.00 717.00" xmlns="http://www.w3.org/2000/svg" xmlns:xlink="http://www.w3.org/1999/xlink">
<g id="graph0" class="graph" transform="scale(1 1) rotate(0) translate(4 712.5)">
<title>Dependencies</title>
<polygon fill="white" stroke="none" points="-4,4 -4,-712.5 350.25,-712.5 350.25,4 -4,4"/>
<text xml:space="preserve" text-anchor="middle" x="173.12" y="-7.2" font-family="Times New Roman,serif" font-size="14.00">simple_speech &#45; Dependencies</text>
<!-- simple_speech -->
<g id="node1" class="node">
<title>simple_speech</title>
<polygon fill="lightblue" stroke="black" points="96.25,-384.5 0,-384.5 0,-348.5 96.25,-348.5 96.25,-384.5"/>
<text xml:space="preserve" text-anchor="middle" x="48.12" y="-361.45" font-family="Times New Roman,serif" font-size="14.00">simple_speech</text>
</g>
<!-- simple_ai_client -->
<g id="node2" class="node">
<title>simple_ai_client</title>
<polygon fill="lightblue" stroke="black" points="346.25,-708.5 240.25,-708.5 240.25,-672.5 346.25,-672.5 346.25,-708.5"/>
<text xml:space="preserve" text-anchor="middle" x="293.25" y="-685.45" font-family="Times New Roman,serif" font-size="14.00">simple_ai_client</text>
</g>
<!-- simple_speech&#45;&gt;simple_ai_client -->
<g id="edge1" class="edge">
<title>simple_speech&#45;&gt;simple_ai_client</title>
<path fill="none" stroke="black" stroke-dasharray="5,2" d="M19.25,-384.85C19.25,-453.39 19.25,-690.5 19.25,-690.5 19.25,-690.5 228.26,-690.5 228.26,-690.5"/>
<polygon fill="black" stroke="black" points="228.26,-694 238.26,-690.5 228.26,-687 228.26,-694"/>
</g>
<!-- simple_ffmpeg -->
<g id="node3" class="node">
<title>simple_ffmpeg</title>
<polygon fill="lightblue" stroke="black" points="342.88,-636.5 243.62,-636.5 243.62,-600.5 342.88,-600.5 342.88,-636.5"/>
<text xml:space="preserve" text-anchor="middle" x="293.25" y="-613.45" font-family="Times New Roman,serif" font-size="14.00">simple_ffmpeg</text>
</g>
<!-- simple_speech&#45;&gt;simple_ffmpeg -->
<g id="edge2" class="edge">
<title>simple_speech&#45;&gt;simple_ffmpeg</title>
<path fill="none" stroke="black" stroke-dasharray="5,2" d="M38.25,-384.62C38.25,-442.4 38.25,-618.5 38.25,-618.5 38.25,-618.5 231.66,-618.5 231.66,-618.5"/>
<polygon fill="black" stroke="black" points="231.66,-622 241.66,-618.5 231.66,-615 231.66,-622"/>
</g>
<!-- simple_json -->
<g id="node4" class="node">
<title>simple_json</title>
<polygon fill="lightblue" stroke="black" points="334.25,-564.5 252.25,-564.5 252.25,-528.5 334.25,-528.5 334.25,-564.5"/>
<text xml:space="preserve" text-anchor="middle" x="293.25" y="-541.45" font-family="Times New Roman,serif" font-size="14.00">simple_json</text>
</g>
<!-- simple_speech&#45;&gt;simple_json -->
<g id="edge3" class="edge">
<title>simple_speech&#45;&gt;simple_json</title>
<path fill="none" stroke="black" stroke-dasharray="5,2" d="M57.25,-384.75C57.25,-430.51 57.25,-546.5 57.25,-546.5 57.25,-546.5 240.36,-546.5 240.36,-546.5"/>
<polygon fill="black" stroke="black" points="240.36,-550 250.36,-546.5 240.36,-543 240.36,-550"/>
</g>
<!-- simple_process -->
<g id="node5" class="node">
<title>simple_process</title>
<polygon fill="lightblue" stroke="black" points="343.25,-492.5 243.25,-492.5 243.25,-456.5 343.25,-456.5 343.25,-492.5"/>
<text xml:space="preserve" text-anchor="middle" x="293.25" y="-469.45" font-family="Times New Roman,serif" font-size="14.00">simple_process</text>
</g>
<!-- simple_speech&#45;&gt;simple_process -->
<g id="edge4" class="edge">
<title>simple_speech&#45;&gt;simple_process</title>
<path fill="none" stroke="black" stroke-dasharray="5,2" d="M77.25,-384.82C77.25,-415.63 77.25,-474.5 77.25,-474.5 77.25,-474.5 231.37,-474.5 231.37,-474.5"/>
<polygon fill="black" stroke="black" points="231.37,-478 241.37,-474.5 231.37,-471 231.37,-478"/>
</g>
<!-- simple_testing -->
<g id="node6" class="node">
<title>simple_testing</title>
<polygon fill="lightblue" stroke="black" points="341,-420.5 245.5,-420.5 245.5,-384.5 341,-384.5 341,-420.5"/>
<text xml:space="preserve" text-anchor="middle" x="293.25" y="-397.45" font-family="Times New Roman,serif" font-size="14.00">simple_testing</text>
</g>
<!-- simple_speech&#45;&gt;simple_testing -->
<g id="edge5" class="edge">
<title>simple_speech&#45;&gt;simple_testing</title>
<path fill="none" stroke="black" stroke-dasharray="5,2" d="M96.75,-372.5C172.04,-372.5 308.25,-372.5 308.25,-372.5 308.25,-372.5 308.25,-373.65 308.25,-373.65"/>
<polygon fill="black" stroke="black" points="304.75,-372.5 308.25,-382.5 311.75,-372.5 304.75,-372.5"/>
</g>
<!-- simple_vision -->
<g id="node7" class="node">
<title>simple_vision</title>
<polygon fill="lightblue" stroke="black" points="339.5,-348.5 247,-348.5 247,-312.5 339.5,-312.5 339.5,-348.5"/>
<text xml:space="preserve" text-anchor="middle" x="293.25" y="-325.45" font-family="Times New Roman,serif" font-size="14.00">simple_vision</text>
</g>
<!-- simple_speech&#45;&gt;simple_vision -->
<g id="edge6" class="edge">
<title>simple_speech&#45;&gt;simple_vision</title>
<path fill="none" stroke="black" stroke-dasharray="5,2" d="M96.65,-360.5C164.16,-360.5 278.25,-360.5 278.25,-360.5 278.25,-360.5 278.25,-359.35 278.25,-359.35"/>
<polygon fill="black" stroke="black" points="281.75,-360.5 278.25,-350.5 274.75,-360.5 281.75,-360.5"/>
</g>
<!-- base -->
<g id="node8" class="node">
<title>base</title>
<polygon fill="lightgray" stroke="black" points="320.25,-276.5 266.25,-276.5 266.25,-240.5 320.25,-240.5 320.25,-276.5"/>
<text xml:space="preserve" text-anchor="middle" x="293.25" y="-253.45" font-family="Times New Roman,serif" font-size="14.00">base</text>
</g>
<!-- simple_speech&#45;&gt;base -->
<g id="edge7" class="edge">
<title>simple_speech&#45;&gt;base</title>
<path fill="none" stroke="black" stroke-dasharray="5,2" d="M77.25,-348.18C77.25,-317.37 77.25,-258.5 77.25,-258.5 77.25,-258.5 254.38,-258.5 254.38,-258.5"/>
<polygon fill="black" stroke="black" points="254.38,-262 264.38,-258.5 254.38,-255 254.38,-262"/>
</g>
<!-- time -->
<g id="node9" class="node">
<title>time</title>
<polygon fill="lightgray" stroke="black" points="320.25,-204.5 266.25,-204.5 266.25,-168.5 320.25,-168.5 320.25,-204.5"/>
<text xml:space="preserve" text-anchor="middle" x="293.25" y="-181.45" font-family="Times New Roman,serif" font-size="14.00">time</text>
</g>
<!-- simple_speech&#45;&gt;time -->
<g id="edge8" class="edge">
<title>simple_speech&#45;&gt;time</title>
<path fill="none" stroke="black" stroke-dasharray="5,2" d="M57.25,-348.25C57.25,-302.49 57.25,-186.5 57.25,-186.5 57.25,-186.5 254.66,-186.5 254.66,-186.5"/>
<polygon fill="black" stroke="black" points="254.66,-190 264.66,-186.5 254.66,-183 254.66,-190"/>
</g>
<!-- testing -->
<g id="node10" class="node">
<title>testing</title>
<polygon fill="lightgray" stroke="black" points="320.25,-132.5 266.25,-132.5 266.25,-96.5 320.25,-96.5 320.25,-132.5"/>
<text xml:space="preserve" text-anchor="middle" x="293.25" y="-109.45" font-family="Times New Roman,serif" font-size="14.00">testing</text>
</g>
<!-- simple_speech&#45;&gt;testing -->
<g id="edge9" class="edge">
<title>simple_speech&#45;&gt;testing</title>
<path fill="none" stroke="black" stroke-dasharray="5,2" d="M38.25,-348.38C38.25,-290.6 38.25,-114.5 38.25,-114.5 38.25,-114.5 254.45,-114.5 254.45,-114.5"/>
<polygon fill="black" stroke="black" points="254.45,-118 264.45,-114.5 254.45,-111 254.45,-118"/>
</g>
<!-- vision2 -->
<g id="node11" class="node">
<title>vision2</title>
<polygon fill="lightgray" stroke="black" points="321.12,-60.5 265.38,-60.5 265.38,-24.5 321.12,-24.5 321.12,-60.5"/>
<text xml:space="preserve" text-anchor="middle" x="293.25" y="-37.45" font-family="Times New Roman,serif" font-size="14.00">vision2</text>
</g>
<!-- simple_speech&#45;&gt;vision2 -->
<g id="edge10" class="edge">
<title>simple_speech&#45;&gt;vision2</title>
<path fill="none" stroke="black" stroke-dasharray="5,2" d="M19.25,-348.15C19.25,-279.61 19.25,-42.5 19.25,-42.5 19.25,-42.5 253.45,-42.5 253.45,-42.5"/>
<polygon fill="black" stroke="black" points="253.45,-46 263.45,-42.5 253.45,-39 253.45,-46"/>
</g>
</g>
</svg>
